<svg width="24" height="24" viewBox="0 0 24 24" fill="none" xmlns="http://www.w3.org/2000/svg">
<path d="M2.31661 16V2.28571H0V0H3.47491C3.78211 0 4.07673 0.120408 4.29395 0.334735C4.51117 0.549062 4.63321 0.839753 4.63321 1.14286V14.8571H19.0402L21.3568 5.71429H6.94982V3.42857H22.8417C23.0178 3.42858 23.1915 3.46818 23.3498 3.54438C23.508 3.62059 23.6465 3.73137 23.7549 3.86833C23.8632 4.00528 23.9384 4.1648 23.9749 4.33475C24.0114 4.50471 24.0081 4.68063 23.9653 4.84914L21.0695 16.2777C21.0068 16.5249 20.8621 16.7442 20.6586 16.901C20.455 17.0577 20.2042 17.1429 19.946 17.1429H3.47491C3.16771 17.1429 2.87309 17.0225 2.65586 16.8081C2.43864 16.5938 2.31661 16.3031 2.31661 16ZM4.63321 24C4.01881 24 3.42957 23.7592 2.99512 23.3305C2.56068 22.9019 2.31661 22.3205 2.31661 21.7143C2.31661 21.1081 2.56068 20.5267 2.99512 20.098C3.42957 19.6694 4.01881 19.4286 4.63321 19.4286C5.24761 19.4286 5.83685 19.6694 6.2713 20.098C6.70575 20.5267 6.94982 21.1081 6.94982 21.7143C6.94982 22.3205 6.70575 22.9019 6.2713 23.3305C5.83685 23.7592 5.24761 24 4.63321 24ZM18.5328 24C17.9184 24 17.3292 23.7592 16.8948 23.3305C16.4603 22.9019 16.2162 22.3205 16.2162 21.7143C16.2162 21.1081 16.4603 20.5267 16.8948 20.098C17.3292 19.6694 17.9184 19.4286 18.5328 19.4286C19.1472 19.4286 19.7365 19.6694 20.1709 20.098C20.6054 20.5267 20.8494 21.1081 20.8494 21.7143C20.8494 22.3205 20.6054 22.9019 20.1709 23.3305C19.7365 23.7592 19.1472 24 18.5328 24Z" fill="#1D1D1D"/>
</svg>
