<?xml version="1.0" encoding="UTF-8" standalone="no"?>
<!-- Created with Inkscape (http://www.inkscape.org/) -->

<svg
   width="210mm"
   height="297mm"
   viewBox="0 0 210 297"
   version="1.1"
   id="svg5"
   inkscape:version="1.1.2 (b8e25be833, 2022-02-05)"
   sodipodi:docname="favorite1.svg"
   xmlns:inkscape="http://www.inkscape.org/namespaces/inkscape"
   xmlns:sodipodi="http://sodipodi.sourceforge.net/DTD/sodipodi-0.dtd"
   xmlns="http://www.w3.org/2000/svg"
   xmlns:svg="http://www.w3.org/2000/svg">
  <sodipodi:namedview
     id="namedview7"
     pagecolor="#ffffff"
     bordercolor="#666666"
     borderopacity="1.0"
     inkscape:pageshadow="2"
     inkscape:pageopacity="0.0"
     inkscape:pagecheckerboard="0"
     inkscape:document-units="mm"
     showgrid="false"
     inkscape:zoom="32"
     inkscape:cx="208.89062"
     inkscape:cy="463.14062"
     inkscape:window-width="1920"
     inkscape:window-height="1001"
     inkscape:window-x="-9"
     inkscape:window-y="-9"
     inkscape:window-maximized="1"
     inkscape:current-layer="g18" />
  <defs
     id="defs2" />
  <g
     inkscape:label="Слой 1"
     inkscape:groupmode="layer"
     id="layer1">
    <g
       style="fill:none"
       id="g18"
       transform="matrix(0.26458333,0,0,0.26458333,56.00446,120.69752)">
      <path
         d="m 12.001,1.98515 c 2.8187,-2.73822 7.1746,-2.647335 9.8902,0.29603 2.7143,2.94466 2.8079,7.6343 0.2832,10.69322 L 11.9986,24 1.82517,12.9744 C -0.69958,9.91548 -0.604781,5.21805 2.10837,2.28118 4.82632,-0.65829 9.17384,-0.756965 12.001,1.98515 Z m 8.191,2.1306 C 18.3921,2.16562 15.4881,2.08642 13.6042,3.9171 L 12.0022,5.47252 10.399,3.9184 C 8.50905,2.08513 5.6111,2.16562 3.80634,4.11834 2.01837,6.05289 1.92837,9.14946 3.57594,11.1957 l 8.42386,9.1287 8.4238,-9.1274 C 22.0724,9.14946 21.9824,6.05678 20.192,4.11575 Z"
         fill="#cb4a4a"
         id="path9" />
      <path
         style="fill:#fff;stroke:none;stroke-width:0.0313226"
         d="m 7.7802801,15.741689 c -2.3099695,-2.515148 -4.2536495,-4.644923 -4.3192895,-4.73283 -0.1746,-0.233852 -0.41368,-0.639489 -0.5365,-0.910242 -0.86344,-1.9035087 -0.60189,-4.1385109 0.67025,-5.7274033 0.71703,-0.895564 1.66701,-1.4835347 2.78246,-1.722179 0.41472,-0.088711 1.2855795,-0.080573 1.7150195,0.015974 0.78108,0.175693 1.43221,0.4956435 2.0238499,0.9944718 0.12289,0.1035994 0.59753,0.5539231 1.05478,1.0007005 L 12.0022,5.47252 12.8005,4.6915763 c 0.43907,-0.4295075 0.89962,-0.8698651 1.02344,-0.9785581 0.59814,-0.5250596 1.33521,-0.8903299 2.14701,-1.0640035 0.37399,-0.07997 1.28227,-0.07997 1.65625,0 1.52244,0.3257071 2.72733,1.2978455 3.42088,2.7600416 0.82383,1.7368269 0.68321,3.8103318 -0.36579,5.3938997 -0.19055,0.287661 -0.69415,0.841584 -7.43403,8.176928 -0.67454,0.734137 -1.2358,1.334786 -1.24724,1.334786 -0.0114,0 -1.91077,-2.057842 -4.2207399,-4.573001 z"
         id="path2088" />
    </g>
  </g>
</svg>
