<svg width="18" height="18" viewBox="0 0 18 18" fill="none" xmlns="http://www.w3.org/2000/svg">
<path d="M4.1415 14C4.31367 13.512 4.63295 13.0895 5.05534 12.7906C5.47772 12.4918 5.98241 12.3313 6.49984 12.3313C7.01727 12.3313 7.52195 12.4918 7.94434 12.7906C8.36672 13.0895 8.686 13.512 8.85817 14H17.3332V15.6667H8.85817C8.686 16.1546 8.36672 16.5771 7.94434 16.876C7.52195 17.1749 7.01727 17.3354 6.49984 17.3354C5.98241 17.3354 5.47772 17.1749 5.05534 16.876C4.63295 16.5771 4.31367 16.1546 4.1415 15.6667H0.666504V14H4.1415ZM9.1415 8.16665C9.31367 7.67871 9.63295 7.25618 10.0553 6.95731C10.4777 6.65844 10.9824 6.49794 11.4998 6.49794C12.0173 6.49794 12.522 6.65844 12.9443 6.95731C13.3667 7.25618 13.686 7.67871 13.8582 8.16665H17.3332V9.83332H13.8582C13.686 10.3213 13.3667 10.7438 12.9443 11.0427C12.522 11.3415 12.0173 11.502 11.4998 11.502C10.9824 11.502 10.4777 11.3415 10.0553 11.0427C9.63295 10.7438 9.31367 10.3213 9.1415 9.83332H0.666504V8.16665H9.1415ZM4.1415 2.33332C4.31367 1.84538 4.63295 1.42285 5.05534 1.12398C5.47772 0.825108 5.98241 0.664612 6.49984 0.664612C7.01727 0.664612 7.52195 0.825108 7.94434 1.12398C8.36672 1.42285 8.686 1.84538 8.85817 2.33332H17.3332V3.99999H8.85817C8.686 4.48793 8.36672 4.91046 7.94434 5.20933C7.52195 5.5082 7.01727 5.6687 6.49984 5.6687C5.98241 5.6687 5.47772 5.5082 5.05534 5.20933C4.63295 4.91046 4.31367 4.48793 4.1415 3.99999H0.666504V2.33332H4.1415ZM6.49984 3.99999C6.72085 3.99999 6.93281 3.91219 7.08909 3.75591C7.24537 3.59963 7.33317 3.38767 7.33317 3.16665C7.33317 2.94564 7.24537 2.73368 7.08909 2.5774C6.93281 2.42112 6.72085 2.33332 6.49984 2.33332C6.27882 2.33332 6.06686 2.42112 5.91058 2.5774C5.7543 2.73368 5.6665 2.94564 5.6665 3.16665C5.6665 3.38767 5.7543 3.59963 5.91058 3.75591C6.06686 3.91219 6.27882 3.99999 6.49984 3.99999ZM11.4998 9.83332C11.7209 9.83332 11.9328 9.74552 12.0891 9.58924C12.2454 9.43296 12.3332 9.221 12.3332 8.99999C12.3332 8.77897 12.2454 8.56701 12.0891 8.41073C11.9328 8.25445 11.7209 8.16665 11.4998 8.16665C11.2788 8.16665 11.0669 8.25445 10.9106 8.41073C10.7543 8.56701 10.6665 8.77897 10.6665 8.99999C10.6665 9.221 10.7543 9.43296 10.9106 9.58924C11.0669 9.74552 11.2788 9.83332 11.4998 9.83332ZM6.49984 15.6667C6.72085 15.6667 6.93281 15.5789 7.08909 15.4226C7.24537 15.2663 7.33317 15.0543 7.33317 14.8333C7.33317 14.6123 7.24537 14.4003 7.08909 14.2441C6.93281 14.0878 6.72085 14 6.49984 14C6.27882 14 6.06686 14.0878 5.91058 14.2441C5.7543 14.4003 5.6665 14.6123 5.6665 14.8333C5.6665 15.0543 5.7543 15.2663 5.91058 15.4226C6.06686 15.5789 6.27882 15.6667 6.49984 15.6667Z" fill="#618C78"/>
</svg>
