<svg width="22" height="18" viewBox="0 0 22 18" fill="none" xmlns="http://www.w3.org/2000/svg">
<path d="M0.181641 9C1.12164 3.88 5.60864 0 11.0006 0C16.3926 0 20.8786 3.88 21.8196 9C20.8796 14.12 16.3926 18 11.0006 18C5.60864 18 1.12264 14.12 0.181641 9ZM11.0006 14C12.3267 14 13.5985 13.4732 14.5362 12.5355C15.4739 11.5979 16.0006 10.3261 16.0006 9C16.0006 7.67392 15.4739 6.40215 14.5362 5.46447C13.5985 4.52678 12.3267 4 11.0006 4C9.67456 4 8.40279 4.52678 7.46511 5.46447C6.52742 6.40215 6.00064 7.67392 6.00064 9C6.00064 10.3261 6.52742 11.5979 7.46511 12.5355C8.40279 13.4732 9.67456 14 11.0006 14ZM11.0006 12C10.205 12 9.44193 11.6839 8.87932 11.1213C8.31671 10.5587 8.00064 9.79565 8.00064 9C8.00064 8.20435 8.31671 7.44129 8.87932 6.87868C9.44193 6.31607 10.205 6 11.0006 6C11.7963 6 12.5594 6.31607 13.122 6.87868C13.6846 7.44129 14.0006 8.20435 14.0006 9C14.0006 9.79565 13.6846 10.5587 13.122 11.1213C12.5594 11.6839 11.7963 12 11.0006 12Z" fill="#1D1D1D"/>
</svg>
