<svg width="21" height="18" viewBox="0 0 21 18" fill="none" xmlns="http://www.w3.org/2000/svg">
<path d="M1.02344 0H19.0234C19.2887 0 19.543 0.105357 19.7305 0.292893C19.9181 0.48043 20.0234 0.734784 20.0234 1V17C20.0234 17.2652 19.9181 17.5196 19.7305 17.7071C19.543 17.8946 19.2887 18 19.0234 18H1.02344C0.758221 18 0.503867 17.8946 0.316331 17.7071C0.128794 17.5196 0.0234375 17.2652 0.0234375 17V1C0.0234375 0.734784 0.128794 0.48043 0.316331 0.292893C0.503867 0.105357 0.758221 0 1.02344 0ZM10.0834 8.683L3.67144 3.238L2.37644 4.762L10.0964 11.317L17.6774 4.757L16.3694 3.244L10.0844 8.683H10.0834Z" fill="#1D1D1D"/>
</svg>
