<svg width="24" height="20" viewBox="0 0 24 20" fill="none" xmlns="http://www.w3.org/2000/svg">
<path d="M2.18182 17.7778H21.8182V2.22222H2.18182V17.7778ZM0 0H24V20H0V0Z" fill="#1D1D1D"/>
<path fill-rule="evenodd" clip-rule="evenodd" d="M13.0906 5.55554H17.4542V6.66665H13.0906V5.55554ZM13.0906 8.88888H19.636V9.99999H13.0906V8.88888ZM13.0906 12.2222H19.636V13.3333H13.0906V12.2222ZM9.81783 7.77776C9.81783 8.36713 9.58796 8.93236 9.17879 9.34911C8.76962 9.76586 8.21466 9.99999 7.63601 9.99999C7.05735 9.99999 6.5024 9.76586 6.09323 9.34911C5.68406 8.93236 5.45419 8.36713 5.45419 7.77776C5.45419 7.18839 5.68406 6.62316 6.09323 6.20642C6.5024 5.78967 7.05735 5.55554 7.63601 5.55554C8.21466 5.55554 8.76962 5.78967 9.17879 6.20642C9.58796 6.62316 9.81783 7.18839 9.81783 7.77776ZM7.63601 11.1111C5.94074 11.1111 4.54437 12.5367 4.36328 14.4444H10.9087C10.7276 12.5367 9.33128 11.1111 7.63601 11.1111Z" fill="#1D1D1D"/>
</svg>
