<svg width="39" height="35" viewBox="0 0 39 35" fill="none" xmlns="http://www.w3.org/2000/svg">
<path d="M34.5 8.125V4.375H4.5V30.625H34.5V26.875H19.5C19.0027 26.875 18.5258 26.6775 18.1742 26.3258C17.8225 25.9742 17.625 25.4973 17.625 25V10C17.625 9.50272 17.8225 9.02581 18.1742 8.67418C18.5258 8.32254 19.0027 8.125 19.5 8.125H34.5ZM2.625 0.625H36.375C36.8723 0.625 37.3492 0.822544 37.7008 1.17417C38.0525 1.52581 38.25 2.00272 38.25 2.5V32.5C38.25 32.9973 38.0525 33.4742 37.7008 33.8258C37.3492 34.1775 36.8723 34.375 36.375 34.375H2.625C2.12772 34.375 1.65081 34.1775 1.29917 33.8258C0.947544 33.4742 0.75 32.9973 0.75 32.5V2.5C0.75 2.00272 0.947544 1.52581 1.29917 1.17417C1.65081 0.822544 2.12772 0.625 2.625 0.625ZM21.375 11.875V23.125H34.5V11.875H21.375ZM25.125 15.625H30.75V19.375H25.125V15.625Z" fill="#618C78"/>
</svg>
