<svg width="18" height="18" viewBox="0 0 18 18" fill="none" xmlns="http://www.w3.org/2000/svg">
<path d="M14.5 18C13.5717 18 12.6815 17.6313 12.0251 16.9749C11.3687 16.3185 11 15.4283 11 14.5C11 13.5717 11.3687 12.6815 12.0251 12.0251C12.6815 11.3687 13.5717 11 14.5 11C15.4283 11 16.3185 11.3687 16.9749 12.0251C17.6313 12.6815 18 13.5717 18 14.5C18 15.4283 17.6313 16.3185 16.9749 16.9749C16.3185 17.6313 15.4283 18 14.5 18ZM14.5 16C14.8978 16 15.2794 15.842 15.5607 15.5607C15.842 15.2794 16 14.8978 16 14.5C16 14.1022 15.842 13.7206 15.5607 13.4393C15.2794 13.158 14.8978 13 14.5 13C14.1022 13 13.7206 13.158 13.4393 13.4393C13.158 13.7206 13 14.1022 13 14.5C13 14.8978 13.158 15.2794 13.4393 15.5607C13.7206 15.842 14.1022 16 14.5 16ZM3.5 7C3.04037 7 2.58525 6.90947 2.16061 6.73358C1.73597 6.55769 1.35013 6.29988 1.02513 5.97487C0.700121 5.64987 0.442313 5.26403 0.266422 4.83939C0.0905301 4.41475 0 3.95963 0 3.5C0 3.04037 0.0905301 2.58525 0.266422 2.16061C0.442313 1.73597 0.700121 1.35013 1.02513 1.02513C1.35013 0.700121 1.73597 0.442313 2.16061 0.266422C2.58525 0.0905301 3.04037 -9.6859e-09 3.5 0C4.42826 1.95616e-08 5.3185 0.368749 5.97487 1.02513C6.63125 1.6815 7 2.57174 7 3.5C7 4.42826 6.63125 5.3185 5.97487 5.97487C5.3185 6.63125 4.42826 7 3.5 7ZM3.5 5C3.89782 5 4.27936 4.84196 4.56066 4.56066C4.84196 4.27936 5 3.89782 5 3.5C5 3.10218 4.84196 2.72064 4.56066 2.43934C4.27936 2.15804 3.89782 2 3.5 2C3.10218 2 2.72064 2.15804 2.43934 2.43934C2.15804 2.72064 2 3.10218 2 3.5C2 3.89782 2.15804 4.27936 2.43934 4.56066C2.72064 4.84196 3.10218 5 3.5 5ZM16.071 0.515L17.485 1.929L1.93 17.485L0.516 16.071L16.07 0.515H16.071Z" fill="#1D1D1D"/>
</svg>
