<svg width="19" height="18" viewBox="0 0 19 18" fill="none" xmlns="http://www.w3.org/2000/svg">
<path opacity="0.5" d="M18.0234 13.42V16.956C18.0236 17.2092 17.9276 17.453 17.755 17.6382C17.5824 17.8234 17.346 17.9363 17.0934 17.954C16.6564 17.984 16.2994 18 16.0234 18C7.18644 18 0.0234375 10.837 0.0234375 2C0.0234375 1.724 0.0384375 1.367 0.0694375 0.93C0.0871599 0.677444 0.200019 0.441011 0.385241 0.268409C0.570463 0.0958068 0.81426 -0.000114433 1.06744 2.56579e-07H4.60344C4.72748 -0.000125334 4.84713 0.045859 4.93917 0.12902C5.0312 0.212182 5.08903 0.326583 5.10144 0.45C5.12444 0.68 5.14544 0.863 5.16544 1.002C5.36417 2.38892 5.77144 3.73783 6.37344 5.003C6.46844 5.203 6.40644 5.442 6.22644 5.57L4.06844 7.112C5.38789 10.1865 7.83799 12.6365 10.9124 13.956L12.4524 11.802C12.5154 11.714 12.6072 11.6509 12.7119 11.6237C12.8166 11.5964 12.9276 11.6068 13.0254 11.653C14.2905 12.2539 15.639 12.6601 17.0254 12.858C17.1644 12.878 17.3474 12.9 17.5754 12.922C17.6987 12.9346 17.8128 12.9926 17.8958 13.0846C17.9787 13.1766 18.0246 13.2961 18.0244 13.42H18.0234Z" fill="#1D1D1D"/>
</svg>
