<svg width="19" height="20" viewBox="0 0 19 20" fill="none" xmlns="http://www.w3.org/2000/svg">
<path d="M15.172 6L12.636 8.536L14.05 9.95L19 5L14.05 0.0500031L12.636 1.464L15.172 4H8C5.87827 4 3.84344 4.84286 2.34315 6.34315C0.842854 7.84344 0 9.87827 0 12C0 14.1217 0.842854 16.1566 2.34315 17.6569C3.84344 19.1572 5.87827 20 8 20H17V18H8C6.4087 18 4.88258 17.3679 3.75736 16.2426C2.63214 15.1174 2 13.5913 2 12C2 10.4087 2.63214 8.88258 3.75736 7.75736C4.88258 6.63214 6.4087 6 8 6H15.172Z" fill="black"/>
</svg>
