<svg width="22" height="18" viewBox="0 0 22 18" fill="none" xmlns="http://www.w3.org/2000/svg">
<path d="M2 2.5V0.993C2.00183 0.730378 2.1069 0.479017 2.29251 0.293218C2.47813 0.107418 2.72938 0.00209465 2.992 0H21.008C21.556 0 22 0.445 22 0.993V17.007C21.9982 17.2696 21.8931 17.521 21.7075 17.7068C21.5219 17.8926 21.2706 17.9979 21.008 18H2.992C2.72881 17.9997 2.4765 17.895 2.29049 17.7088C2.10448 17.5226 2 17.2702 2 17.007V16H20V4.3L12 11.5L2 2.5ZM0 7H5V9H0V7ZM0 12H8V14H0V12Z" fill="white"/>
</svg>
